<svg fill="#005285" width="256px" height="256px" viewBox="0 0 32 32" xmlns="http://www.w3.org/2000/svg"><g id="SVGRepo_bgCarrier" stroke-width="0"></g><g id="SVGRepo_tracerCarrier" stroke-linecap="round" stroke-linejoin="round"></g><g id="SVGRepo_iconCarrier"> <g data-name="people" id="people-12"> <path d="M28.27,14.62,25.76,12.1a1,1,0,0,0-1.42,0l-2.51,2.52A1,1,0,1,0,23.24,16l.81-.81v4a1,1,0,0,0,2,0v-4l.81.81a1,1,0,0,0,1.41,0A1,1,0,0,0,28.27,14.62Z"></path> <path d="M11.41,8.11A3.09,3.09,0,1,0,8.32,5,3.1,3.1,0,0,0,11.41,8.11Zm0-4.18A1.09,1.09,0,1,1,10.32,5,1.09,1.09,0,0,1,11.41,3.93Z"></path> <path d="M16.54,15.89V12.5A3.49,3.49,0,0,0,13.06,9H9.76a3.49,3.49,0,0,0-3.48,3.5v3.39L3.76,19.66l-.08.16A3,3,0,0,0,6.44,24h1v2.81a2.1,2.1,0,0,0,2,2.19h4a2.1,2.1,0,0,0,2-2.19V24h1a3,3,0,0,0,2.49-1.34,3,3,0,0,0,.27-2.84ZM13.41,26.81c0,.12-.05.18,0,.19L9.47,27a.33.33,0,0,1-.06-.21V24h4Zm3.8-5.26a1,1,0,0,1-.83.45H6.44a1,1,0,0,1-.83-.45,1,1,0,0,1-.12-.88l2.62-3.93s0,0,0-.08a.71.71,0,0,0,.08-.18,1.42,1.42,0,0,0,0-.2s0-.06,0-.09V12.5A1.49,1.49,0,0,1,9.76,11h3.3a1.49,1.49,0,0,1,1.48,1.5v3.69s0,.06,0,.09a.91.91,0,0,0,.12.38s0,.06,0,.08l2.61,3.93A1,1,0,0,1,17.21,21.55Z"></path> </g> </g></svg>